<svg width="50" height="50" viewBox="0 0 50 50" fill="none" xmlns="http://www.w3.org/2000/svg">
<path d="M24.9999 36.9792C22.6308 36.9792 20.3146 36.2767 18.3446 34.9604C16.3747 33.644 14.8393 31.7731 13.9326 29.5842C13.0259 27.3954 12.7887 24.9867 13.2509 22.6629C13.7131 20.3392 14.8541 18.2048 16.5294 16.5295C18.2047 14.8541 20.3392 13.7132 22.6628 13.251C24.9866 12.7888 27.3953 13.026 29.5841 13.9327C31.773 14.8394 33.6439 16.3748 34.9603 18.3447C36.2766 20.3147 36.9791 22.6308 36.9791 25C36.9737 28.1754 35.7097 31.2192 33.4643 33.4644C31.2191 35.7098 28.1753 36.9737 24.9999 36.9792ZM24.9999 16.1458C23.2487 16.1458 21.5368 16.6651 20.0808 17.638C18.6248 18.6109 17.4899 19.9938 16.8197 21.6117C16.1496 23.2296 15.9743 25.0098 16.3159 26.7273C16.6575 28.445 17.5008 30.0225 18.7391 31.2608C19.9774 32.4992 21.5549 33.3425 23.2726 33.684C24.9901 34.0256 26.7703 33.8504 28.3883 33.1802C30.0062 32.51 31.3891 31.3752 32.3618 29.9192C33.3347 28.4631 33.8541 26.7512 33.8541 25C33.8487 22.6533 32.9139 20.4045 31.2547 18.7452C29.5953 17.086 27.3466 16.1513 24.9999 16.1458Z" fill="black"/>
<path d="M25 10.4167C24.5873 10.4113 24.1929 10.2449 23.901 9.95307C23.6092 9.66119 23.4429 9.2669 23.4375 8.85417V5.72917C23.4375 5.31478 23.6021 4.91734 23.8952 4.62432C24.1881 4.3313 24.5856 4.16667 25 4.16667C25.4144 4.16667 25.8119 4.3313 26.1048 4.62432C26.3979 4.91734 26.5625 5.31478 26.5625 5.72917V8.85417C26.5571 9.2669 26.3908 9.66119 26.099 9.95307C25.8071 10.2449 25.4127 10.4113 25 10.4167Z" fill="black"/>
<path d="M25 45.8333C24.5873 45.8279 24.1929 45.6617 23.901 45.3698C23.6092 45.0779 23.4429 44.6835 23.4375 44.2708V41.1458C23.4375 40.7315 23.6021 40.334 23.8952 40.041C24.1881 39.7479 24.5856 39.5833 25 39.5833C25.4144 39.5833 25.8119 39.7479 26.1048 40.041C26.3979 40.334 26.5625 40.7315 26.5625 41.1458V44.2708C26.5571 44.6835 26.3908 45.0779 26.099 45.3698C25.8071 45.6617 25.4127 45.8279 25 45.8333Z" fill="black"/>
<path d="M44.2708 26.5625H41.1458C40.7314 26.5625 40.3339 26.3979 40.041 26.1048C39.7478 25.8119 39.5833 25.4144 39.5833 25C39.5833 24.5856 39.7478 24.1881 40.041 23.8952C40.3339 23.6021 40.7314 23.4375 41.1458 23.4375H44.2708C44.6851 23.4375 45.0826 23.6021 45.3755 23.8952C45.6687 24.1881 45.8333 24.5856 45.8333 25C45.8333 25.4144 45.6687 25.8119 45.3755 26.1048C45.0826 26.3979 44.6851 26.5625 44.2708 26.5625Z" fill="black"/>
<path d="M8.85425 26.5625H5.72925C5.31485 26.5625 4.91741 26.3979 4.62439 26.1048C4.33137 25.8119 4.16675 25.4144 4.16675 25C4.16675 24.5856 4.33137 24.1881 4.62439 23.8952C4.91741 23.6021 5.31485 23.4375 5.72925 23.4375H8.85425C9.26864 23.4375 9.66608 23.6021 9.9591 23.8952C10.2521 24.1881 10.4167 24.5856 10.4167 25C10.4167 25.4144 10.2521 25.8119 9.9591 26.1048C9.66608 26.3979 9.26864 26.5625 8.85425 26.5625Z" fill="black"/>
<path d="M13.5416 15.1041C13.1396 15.0733 12.7657 14.8863 12.4999 14.5832L10.2291 12.4999C10.08 12.3508 9.96171 12.1738 9.881 11.979C9.80031 11.7841 9.75879 11.5753 9.75879 11.3645C9.75879 11.1536 9.80031 10.9448 9.881 10.75C9.96171 10.5552 10.08 10.3782 10.2291 10.2291C10.3782 10.08 10.5552 9.96168 10.75 9.88097C10.9448 9.80029 11.1536 9.75874 11.3645 9.75874C11.5754 9.75874 11.7842 9.80029 11.979 9.88097C12.1738 9.96168 12.3508 10.08 12.4999 10.2291L14.5832 12.4999C14.8395 12.7864 14.9811 13.1572 14.9811 13.5416C14.9811 13.9259 14.8395 14.2967 14.5832 14.5832C14.3175 14.8863 13.9435 15.0733 13.5416 15.1041Z" fill="black"/>
<path d="M38.6666 40.2292C38.4614 40.23 38.2579 40.19 38.0683 40.1113C37.8787 40.0327 37.7068 39.9169 37.5625 39.7708L35.4166 37.5C35.2775 37.2083 35.2321 36.8808 35.2866 36.5623C35.3412 36.244 35.4933 35.9502 35.7218 35.7217C35.9502 35.4933 36.2439 35.3413 36.5625 35.2867C36.8808 35.2319 37.2085 35.2773 37.5 35.4167L39.7708 37.5C40.0635 37.7929 40.2279 38.19 40.2279 38.6042C40.2279 39.0181 40.0635 39.4154 39.7708 39.7083C39.6318 39.8656 39.4623 39.9931 39.2725 40.0827C39.0827 40.1723 38.8764 40.2221 38.6666 40.2292Z" fill="black"/>
<path d="M36.4584 15.1041C36.0565 15.0733 35.6825 14.8863 35.4167 14.5832C35.1605 14.2967 35.0188 13.9259 35.0188 13.5416C35.0188 13.1572 35.1605 12.7864 35.4167 12.4999L37.5 10.2291C37.8011 9.92793 38.2096 9.75874 38.6355 9.75874C39.0613 9.75874 39.4698 9.92793 39.7709 10.2291C40.0719 10.5302 40.2413 10.9386 40.2413 11.3645C40.2413 11.7903 40.0719 12.1988 39.7709 12.4999L37.5 14.5832C37.2342 14.8863 36.8603 15.0733 36.4584 15.1041Z" fill="black"/>
<path d="M11.3333 40.2292C11.1281 40.23 10.9246 40.19 10.735 40.1113C10.5454 40.0327 10.3734 39.9169 10.2292 39.7708C9.93657 39.4779 9.77222 39.0806 9.77222 38.6667C9.77222 38.2525 9.93657 37.8554 10.2292 37.5625L12.5 35.4167C12.7916 35.2773 13.1192 35.2319 13.4376 35.2867C13.7561 35.3413 14.0498 35.4933 14.2783 35.7217C14.5067 35.9502 14.6588 36.244 14.7134 36.5623C14.768 36.8808 14.7226 37.2083 14.5833 37.5L12.5 39.7708C12.3485 39.9246 12.1663 40.045 11.9654 40.124C11.7644 40.2029 11.5491 40.2388 11.3333 40.2292Z" fill="black"/>
</svg>
